<?xml version="1.0" encoding="utf-8"?>
<!-- Generator: Adobe Illustrator 23.0.1, SVG Export Plug-In . SVG Version: 6.00 Build 0)  -->
<svg version="1.1" xmlns="http://www.w3.org/2000/svg" xmlns:xlink="http://www.w3.org/1999/xlink" x="0px" y="0px"
	 viewBox="0 0 624 624" style="enable-background:new 0 0 624 624;" xml:space="preserve">
<style type="text/css">
	.st0{fill:#2B3072;}
</style>
<g id="bg">
</g>
<g id="head">
</g>
<g id="eye_sx">
</g>
<g id="eye_dx">
</g>
<g id="piega_sx">
</g>
<g id="piega_dx">
</g>
<g id="mouth">
	<g>
		<g>
			<path class="st0" d="M312,624c-83.3,0-161.7-32.5-220.6-91.4S0,395.3,0,312c0-83.3,32.5-161.7,91.4-220.6S228.7,0,312,0
				c83.3,0,161.7,32.5,220.6,91.4S624,228.7,624,312c0,83.3-32.5,161.7-91.4,220.6S395.3,624,312,624z M312,20
				c-78,0-151.3,30.4-206.5,85.5C50.4,160.7,20,234,20,312s30.4,151.3,85.5,206.5C160.7,573.6,234,604,312,604
				s151.3-30.4,206.5-85.5S604,390,604,312s-30.4-151.3-85.5-206.5C463.3,50.4,390,20,312,20z"/>
		</g>
		<g>
			<ellipse class="st0" cx="225" cy="255.9" rx="23" ry="31.3"/>
		</g>
		<g>
			<ellipse class="st0" cx="399" cy="255.9" rx="23" ry="31.3"/>
		</g>
		<path class="st0" d="M477.3,422l-32.6-41.7l-15.8,12.3l11.1,14.2c-35.9,35.5-81.1,55-128,55c-46.9,0-92.1-19.5-128-55l11.1-14.2
			l-15.8-12.3L146.8,422l15.8,12.3l9.1-11.6c39.4,38.2,88.9,59.2,140.4,59.2c51.5,0,101-20.9,140.4-59.2l9.1,11.6L477.3,422z"/>
	</g>
</g>
</svg>
